<?xml version="1.0" encoding="UTF-8" standalone="no"?>
<!DOCTYPE svg PUBLIC "-//W3C//DTD SVG 1.1//EN"
 "http://www.w3.org/Graphics/SVG/1.1/DTD/svg11.dtd">
<!-- Generated by graphviz version 2.48.0 (20210717.1556)
 -->
<!-- Pages: 1 -->
<svg width="1700pt" height="548pt"
 viewBox="0.00 0.00 1699.56 548.00" xmlns="http://www.w3.org/2000/svg" xmlns:xlink="http://www.w3.org/1999/xlink">
<g id="graph0" class="graph" transform="scale(1 1) rotate(0) translate(4 544)">
<polygon fill="white" stroke="transparent" points="-4,4 -4,-544 1695.56,-544 1695.56,4 -4,4"/>
<!-- [root] aws_db_instance.mysql_db (expand) -->
<g id="node1" class="node">
<title>[root] aws_db_instance.mysql_db (expand)</title>
<polygon fill="none" stroke="black" points="1445.06,-324 1274.06,-324 1274.06,-288 1445.06,-288 1445.06,-324"/>
<text text-anchor="middle" x="1359.56" y="-302.3" font-family="Times,serif" font-size="14.00">aws_db_instance.mysql_db</text>
</g>
<!-- [root] aws_db_subnet_group.mysql_subnets (expand) -->
<g id="node2" class="node">
<title>[root] aws_db_subnet_group.mysql_subnets (expand)</title>
<polygon fill="none" stroke="black" points="1668.06,-252 1439.06,-252 1439.06,-216 1668.06,-216 1668.06,-252"/>
<text text-anchor="middle" x="1553.56" y="-230.3" font-family="Times,serif" font-size="14.00">aws_db_subnet_group.mysql_subnets</text>
</g>
<!-- [root] aws_db_instance.mysql_db (expand)&#45;&gt;[root] aws_db_subnet_group.mysql_subnets (expand) -->
<g id="edge1" class="edge">
<title>[root] aws_db_instance.mysql_db (expand)&#45;&gt;[root] aws_db_subnet_group.mysql_subnets (expand)</title>
<path fill="none" stroke="black" d="M1407.02,-287.88C1434.13,-278.09 1468.3,-265.77 1496.82,-255.47"/>
<polygon fill="black" stroke="black" points="1498.04,-258.75 1506.26,-252.07 1495.66,-252.17 1498.04,-258.75"/>
</g>
<!-- [root] aws_security_group.mysql&#45;security&#45;group (expand) -->
<g id="node10" class="node">
<title>[root] aws_security_group.mysql&#45;security&#45;group (expand)</title>
<polygon fill="none" stroke="black" points="1493.06,-180 1240.06,-180 1240.06,-144 1493.06,-144 1493.06,-180"/>
<text text-anchor="middle" x="1366.56" y="-158.3" font-family="Times,serif" font-size="14.00">aws_security_group.mysql&#45;security&#45;group</text>
</g>
<!-- [root] aws_db_instance.mysql_db (expand)&#45;&gt;[root] aws_security_group.mysql&#45;security&#45;group (expand) -->
<g id="edge2" class="edge">
<title>[root] aws_db_instance.mysql_db (expand)&#45;&gt;[root] aws_security_group.mysql&#45;security&#45;group (expand)</title>
<path fill="none" stroke="black" d="M1360.41,-287.87C1361.6,-263.67 1363.79,-219.21 1365.21,-190.39"/>
<polygon fill="black" stroke="black" points="1368.72,-190.35 1365.71,-180.19 1361.73,-190 1368.72,-190.35"/>
</g>
<!-- [root] aws_subnet.subnet&#45;databases (expand) -->
<g id="node11" class="node">
<title>[root] aws_subnet.subnet&#45;databases (expand)</title>
<polygon fill="none" stroke="black" points="1691.56,-180 1511.56,-180 1511.56,-144 1691.56,-144 1691.56,-180"/>
<text text-anchor="middle" x="1601.56" y="-158.3" font-family="Times,serif" font-size="14.00">aws_subnet.subnet&#45;databases</text>
</g>
<!-- [root] aws_db_subnet_group.mysql_subnets (expand)&#45;&gt;[root] aws_subnet.subnet&#45;databases (expand) -->
<g id="edge3" class="edge">
<title>[root] aws_db_subnet_group.mysql_subnets (expand)&#45;&gt;[root] aws_subnet.subnet&#45;databases (expand)</title>
<path fill="none" stroke="black" d="M1565.43,-215.7C1571.06,-207.47 1577.92,-197.48 1584.13,-188.42"/>
<polygon fill="black" stroke="black" points="1587.06,-190.33 1589.83,-180.1 1581.29,-186.37 1587.06,-190.33"/>
</g>
<!-- [root] aws_eip.ip&#45;test&#45;env (expand) -->
<g id="node3" class="node">
<title>[root] aws_eip.ip&#45;test&#45;env (expand)</title>
<polygon fill="none" stroke="black" points="655.56,-396 529.56,-396 529.56,-360 655.56,-360 655.56,-396"/>
<text text-anchor="middle" x="592.56" y="-374.3" font-family="Times,serif" font-size="14.00">aws_eip.ip&#45;test&#45;env</text>
</g>
<!-- [root] aws_instance.test&#45;ec2&#45;instance (expand) -->
<g id="node4" class="node">
<title>[root] aws_instance.test&#45;ec2&#45;instance (expand)</title>
<polygon fill="none" stroke="black" points="343.06,-324 154.06,-324 154.06,-288 343.06,-288 343.06,-324"/>
<text text-anchor="middle" x="248.56" y="-302.3" font-family="Times,serif" font-size="14.00">aws_instance.test&#45;ec2&#45;instance</text>
</g>
<!-- [root] aws_eip.ip&#45;test&#45;env (expand)&#45;&gt;[root] aws_instance.test&#45;ec2&#45;instance (expand) -->
<g id="edge4" class="edge">
<title>[root] aws_eip.ip&#45;test&#45;env (expand)&#45;&gt;[root] aws_instance.test&#45;ec2&#45;instance (expand)</title>
<path fill="none" stroke="black" d="M529.47,-364.16C477.12,-353.51 401.91,-338.2 342.48,-326.11"/>
<polygon fill="black" stroke="black" points="342.83,-322.61 332.33,-324.05 341.43,-329.47 342.83,-322.61"/>
</g>
<!-- [root] tls_private_key.example (expand) -->
<g id="node20" class="node">
<title>[root] tls_private_key.example (expand)</title>
<polygon fill="none" stroke="black" points="669.06,-324 516.06,-324 516.06,-288 669.06,-288 669.06,-324"/>
<text text-anchor="middle" x="592.56" y="-302.3" font-family="Times,serif" font-size="14.00">tls_private_key.example</text>
</g>
<!-- [root] aws_eip.ip&#45;test&#45;env (expand)&#45;&gt;[root] tls_private_key.example (expand) -->
<g id="edge5" class="edge">
<title>[root] aws_eip.ip&#45;test&#45;env (expand)&#45;&gt;[root] tls_private_key.example (expand)</title>
<path fill="none" stroke="black" d="M592.56,-359.7C592.56,-351.98 592.56,-342.71 592.56,-334.11"/>
<polygon fill="black" stroke="black" points="596.06,-334.1 592.56,-324.1 589.06,-334.1 596.06,-334.1"/>
</g>
<!-- [root] aws_security_group.ingress&#45;all&#45;test (expand) -->
<g id="node9" class="node">
<title>[root] aws_security_group.ingress&#45;all&#45;test (expand)</title>
<polygon fill="none" stroke="black" points="955.06,-180 740.06,-180 740.06,-144 955.06,-144 955.06,-180"/>
<text text-anchor="middle" x="847.56" y="-158.3" font-family="Times,serif" font-size="14.00">aws_security_group.ingress&#45;all&#45;test</text>
</g>
<!-- [root] aws_instance.test&#45;ec2&#45;instance (expand)&#45;&gt;[root] aws_security_group.ingress&#45;all&#45;test (expand) -->
<g id="edge6" class="edge">
<title>[root] aws_instance.test&#45;ec2&#45;instance (expand)&#45;&gt;[root] aws_security_group.ingress&#45;all&#45;test (expand)</title>
<path fill="none" stroke="black" d="M203.53,-287.86C188.01,-279.53 172.34,-267.81 163.56,-252 155.8,-238.01 152.69,-227.74 163.56,-216 182.49,-195.55 539.3,-176.67 729.86,-168"/>
<polygon fill="black" stroke="black" points="730.09,-171.49 739.93,-167.55 729.78,-164.5 730.09,-171.49"/>
</g>
<!-- [root] aws_subnet.subnet&#45;servers (expand) -->
<g id="node12" class="node">
<title>[root] aws_subnet.subnet&#45;servers (expand)</title>
<polygon fill="none" stroke="black" points="1065.56,-252 899.56,-252 899.56,-216 1065.56,-216 1065.56,-252"/>
<text text-anchor="middle" x="982.56" y="-230.3" font-family="Times,serif" font-size="14.00">aws_subnet.subnet&#45;servers</text>
</g>
<!-- [root] aws_instance.test&#45;ec2&#45;instance (expand)&#45;&gt;[root] aws_subnet.subnet&#45;servers (expand) -->
<g id="edge7" class="edge">
<title>[root] aws_instance.test&#45;ec2&#45;instance (expand)&#45;&gt;[root] aws_subnet.subnet&#45;servers (expand)</title>
<path fill="none" stroke="black" d="M343.1,-297.95C462.1,-288.8 672.71,-271.64 852.56,-252 864.4,-250.71 876.84,-249.23 889.13,-247.7"/>
<polygon fill="black" stroke="black" points="889.92,-251.13 899.4,-246.41 889.04,-244.19 889.92,-251.13"/>
</g>
<!-- [root] data.aws_ami.ubuntu (expand) -->
<g id="node14" class="node">
<title>[root] data.aws_ami.ubuntu (expand)</title>
<polygon fill="none" stroke="black" points="372.06,-180 237.06,-180 237.06,-144 372.06,-144 372.06,-180"/>
<text text-anchor="middle" x="304.56" y="-158.3" font-family="Times,serif" font-size="14.00">data.aws_ami.ubuntu</text>
</g>
<!-- [root] aws_instance.test&#45;ec2&#45;instance (expand)&#45;&gt;[root] data.aws_ami.ubuntu (expand) -->
<g id="edge8" class="edge">
<title>[root] aws_instance.test&#45;ec2&#45;instance (expand)&#45;&gt;[root] data.aws_ami.ubuntu (expand)</title>
<path fill="none" stroke="black" d="M153.76,-299.53C69.68,-291.11 -33.38,-269.8 11.56,-216 38.48,-183.77 149.23,-171.11 226.57,-166.15"/>
<polygon fill="black" stroke="black" points="227.01,-169.63 236.77,-165.53 226.58,-162.64 227.01,-169.63"/>
</g>
<!-- [root] var.ami_key_pair_name -->
<g id="node21" class="node">
<title>[root] var.ami_key_pair_name</title>
<polygon fill="none" stroke="black" points="318.06,-252 173.06,-252 173.06,-216 324.06,-216 324.06,-246 318.06,-252"/>
<polyline fill="none" stroke="black" points="318.06,-252 318.06,-246 "/>
<polyline fill="none" stroke="black" points="324.06,-246 318.06,-246 "/>
<text text-anchor="middle" x="248.56" y="-230.3" font-family="Times,serif" font-size="14.00">var.ami_key_pair_name</text>
</g>
<!-- [root] aws_instance.test&#45;ec2&#45;instance (expand)&#45;&gt;[root] var.ami_key_pair_name -->
<g id="edge9" class="edge">
<title>[root] aws_instance.test&#45;ec2&#45;instance (expand)&#45;&gt;[root] var.ami_key_pair_name</title>
<path fill="none" stroke="black" d="M248.56,-287.7C248.56,-279.98 248.56,-270.71 248.56,-262.11"/>
<polygon fill="black" stroke="black" points="252.06,-262.1 248.56,-252.1 245.06,-262.1 252.06,-262.1"/>
</g>
<!-- [root] var.ami_name -->
<g id="node22" class="node">
<title>[root] var.ami_name</title>
<polygon fill="none" stroke="black" points="110.06,-252 21.06,-252 21.06,-216 116.06,-216 116.06,-246 110.06,-252"/>
<polyline fill="none" stroke="black" points="110.06,-252 110.06,-246 "/>
<polyline fill="none" stroke="black" points="116.06,-246 110.06,-246 "/>
<text text-anchor="middle" x="68.56" y="-230.3" font-family="Times,serif" font-size="14.00">var.ami_name</text>
</g>
<!-- [root] aws_instance.test&#45;ec2&#45;instance (expand)&#45;&gt;[root] var.ami_name -->
<g id="edge10" class="edge">
<title>[root] aws_instance.test&#45;ec2&#45;instance (expand)&#45;&gt;[root] var.ami_name</title>
<path fill="none" stroke="black" d="M204.53,-287.88C179.59,-278.18 148.22,-265.98 121.9,-255.74"/>
<polygon fill="black" stroke="black" points="123.04,-252.43 112.45,-252.07 120.5,-258.95 123.04,-252.43"/>
</g>
<!-- [root] aws_internet_gateway.test&#45;env&#45;gw (expand) -->
<g id="node5" class="node">
<title>[root] aws_internet_gateway.test&#45;env&#45;gw (expand)</title>
<polygon fill="none" stroke="black" points="1221.56,-180 1011.56,-180 1011.56,-144 1221.56,-144 1221.56,-180"/>
<text text-anchor="middle" x="1116.56" y="-158.3" font-family="Times,serif" font-size="14.00">aws_internet_gateway.test&#45;env&#45;gw</text>
</g>
<!-- [root] aws_vpc.test&#45;env (expand) -->
<g id="node13" class="node">
<title>[root] aws_vpc.test&#45;env (expand)</title>
<polygon fill="none" stroke="black" points="1106.06,-108 993.06,-108 993.06,-72 1106.06,-72 1106.06,-108"/>
<text text-anchor="middle" x="1049.56" y="-86.3" font-family="Times,serif" font-size="14.00">aws_vpc.test&#45;env</text>
</g>
<!-- [root] aws_internet_gateway.test&#45;env&#45;gw (expand)&#45;&gt;[root] aws_vpc.test&#45;env (expand) -->
<g id="edge11" class="edge">
<title>[root] aws_internet_gateway.test&#45;env&#45;gw (expand)&#45;&gt;[root] aws_vpc.test&#45;env (expand)</title>
<path fill="none" stroke="black" d="M1100,-143.7C1091.89,-135.22 1081.97,-124.86 1073.09,-115.58"/>
<polygon fill="black" stroke="black" points="1075.38,-112.91 1065.93,-108.1 1070.32,-117.75 1075.38,-112.91"/>
</g>
<!-- [root] aws_key_pair.generated_key (expand) -->
<g id="node6" class="node">
<title>[root] aws_key_pair.generated_key (expand)</title>
<polygon fill="none" stroke="black" points="853.06,-396 674.06,-396 674.06,-360 853.06,-360 853.06,-396"/>
<text text-anchor="middle" x="763.56" y="-374.3" font-family="Times,serif" font-size="14.00">aws_key_pair.generated_key</text>
</g>
<!-- [root] provider[&quot;registry.terraform.io/hashicorp/aws&quot;] -->
<g id="node18" class="node">
<title>[root] provider[&quot;registry.terraform.io/hashicorp/aws&quot;]</title>
<polygon fill="none" stroke="black" points="847.56,-36 589.49,-18 847.56,0 1105.63,-18 847.56,-36"/>
<text text-anchor="middle" x="847.56" y="-14.3" font-family="Times,serif" font-size="14.00">provider[&quot;registry.terraform.io/hashicorp/aws&quot;]</text>
</g>
<!-- [root] aws_key_pair.generated_key (expand)&#45;&gt;[root] provider[&quot;registry.terraform.io/hashicorp/aws&quot;] -->
<g id="edge12" class="edge">
<title>[root] aws_key_pair.generated_key (expand)&#45;&gt;[root] provider[&quot;registry.terraform.io/hashicorp/aws&quot;]</title>
<path fill="none" stroke="black" d="M785.79,-359.87C822.62,-329.4 888.8,-264.47 852.56,-216 818.71,-170.72 764.41,-225.28 730.56,-180 720.98,-167.18 724.68,-158.88 730.56,-144 747.85,-100.22 788.53,-62.77 817.03,-40.57"/>
<polygon fill="black" stroke="black" points="819.24,-43.29 825.09,-34.45 815.01,-37.72 819.24,-43.29"/>
</g>
<!-- [root] aws_key_pair.generated_key (expand)&#45;&gt;[root] tls_private_key.example (expand) -->
<g id="edge13" class="edge">
<title>[root] aws_key_pair.generated_key (expand)&#45;&gt;[root] tls_private_key.example (expand)</title>
<path fill="none" stroke="black" d="M721.73,-359.88C698.14,-350.22 668.5,-338.09 643.56,-327.88"/>
<polygon fill="black" stroke="black" points="644.84,-324.62 634.26,-324.07 642.18,-331.1 644.84,-324.62"/>
</g>
<!-- [root] aws_key_pair.generated_key (expand)&#45;&gt;[root] var.ami_key_pair_name -->
<g id="edge14" class="edge">
<title>[root] aws_key_pair.generated_key (expand)&#45;&gt;[root] var.ami_key_pair_name</title>
<path fill="none" stroke="black" d="M752.59,-359.77C738.19,-338.8 710.79,-304.18 677.56,-288 541.94,-221.94 487.31,-273.02 334.7,-252.19"/>
<polygon fill="black" stroke="black" points="334.91,-248.68 324.51,-250.71 333.9,-255.61 334.91,-248.68"/>
</g>
<!-- [root] aws_route_table.route&#45;table&#45;test&#45;env (expand) -->
<g id="node7" class="node">
<title>[root] aws_route_table.route&#45;table&#45;test&#45;env (expand)</title>
<polygon fill="none" stroke="black" points="1231.06,-324 1010.06,-324 1010.06,-288 1231.06,-288 1231.06,-324"/>
<text text-anchor="middle" x="1120.56" y="-302.3" font-family="Times,serif" font-size="14.00">aws_route_table.route&#45;table&#45;test&#45;env</text>
</g>
<!-- [root] aws_route_table.route&#45;table&#45;test&#45;env (expand)&#45;&gt;[root] aws_internet_gateway.test&#45;env&#45;gw (expand) -->
<g id="edge15" class="edge">
<title>[root] aws_route_table.route&#45;table&#45;test&#45;env (expand)&#45;&gt;[root] aws_internet_gateway.test&#45;env&#45;gw (expand)</title>
<path fill="none" stroke="black" d="M1120.08,-287.87C1119.4,-263.67 1118.14,-219.21 1117.33,-190.39"/>
<polygon fill="black" stroke="black" points="1120.83,-190.09 1117.04,-180.19 1113.83,-190.28 1120.83,-190.09"/>
</g>
<!-- [root] aws_route_table_association.subnet&#45;association (expand) -->
<g id="node8" class="node">
<title>[root] aws_route_table_association.subnet&#45;association (expand)</title>
<polygon fill="none" stroke="black" points="1157.56,-396 873.56,-396 873.56,-360 1157.56,-360 1157.56,-396"/>
<text text-anchor="middle" x="1015.56" y="-374.3" font-family="Times,serif" font-size="14.00">aws_route_table_association.subnet&#45;association</text>
</g>
<!-- [root] aws_route_table_association.subnet&#45;association (expand)&#45;&gt;[root] aws_route_table.route&#45;table&#45;test&#45;env (expand) -->
<g id="edge16" class="edge">
<title>[root] aws_route_table_association.subnet&#45;association (expand)&#45;&gt;[root] aws_route_table.route&#45;table&#45;test&#45;env (expand)</title>
<path fill="none" stroke="black" d="M1041.25,-359.88C1054.85,-350.81 1071.73,-339.55 1086.42,-329.76"/>
<polygon fill="black" stroke="black" points="1088.4,-332.65 1094.78,-324.19 1084.51,-326.82 1088.4,-332.65"/>
</g>
<!-- [root] aws_route_table_association.subnet&#45;association (expand)&#45;&gt;[root] aws_subnet.subnet&#45;servers (expand) -->
<g id="edge17" class="edge">
<title>[root] aws_route_table_association.subnet&#45;association (expand)&#45;&gt;[root] aws_subnet.subnet&#45;servers (expand)</title>
<path fill="none" stroke="black" d="M1010.81,-359.87C1008,-349.51 1004.43,-336.03 1001.56,-324 996.64,-303.38 991.66,-279.93 988.03,-262.28"/>
<polygon fill="black" stroke="black" points="991.39,-261.22 985.96,-252.12 984.53,-262.61 991.39,-261.22"/>
</g>
<!-- [root] aws_security_group.ingress&#45;all&#45;test (expand)&#45;&gt;[root] aws_vpc.test&#45;env (expand) -->
<g id="edge18" class="edge">
<title>[root] aws_security_group.ingress&#45;all&#45;test (expand)&#45;&gt;[root] aws_vpc.test&#45;env (expand)</title>
<path fill="none" stroke="black" d="M896.72,-143.97C925.06,-134.14 960.89,-121.73 990.72,-111.39"/>
<polygon fill="black" stroke="black" points="991.88,-114.69 1000.18,-108.11 989.59,-108.08 991.88,-114.69"/>
</g>
<!-- [root] aws_security_group.mysql&#45;security&#45;group (expand)&#45;&gt;[root] aws_vpc.test&#45;env (expand) -->
<g id="edge19" class="edge">
<title>[root] aws_security_group.mysql&#45;security&#45;group (expand)&#45;&gt;[root] aws_vpc.test&#45;env (expand)</title>
<path fill="none" stroke="black" d="M1289.42,-143.97C1236.33,-132.24 1166.53,-116.83 1115.93,-105.65"/>
<polygon fill="black" stroke="black" points="1116.59,-102.22 1106.07,-103.48 1115.08,-109.05 1116.59,-102.22"/>
</g>
<!-- [root] aws_subnet.subnet&#45;databases (expand)&#45;&gt;[root] aws_vpc.test&#45;env (expand) -->
<g id="edge20" class="edge">
<title>[root] aws_subnet.subnet&#45;databases (expand)&#45;&gt;[root] aws_vpc.test&#45;env (expand)</title>
<path fill="none" stroke="black" d="M1511.48,-145.32C1508.48,-144.87 1505.49,-144.42 1502.56,-144 1365.73,-124.26 1204.84,-106.8 1116.35,-97.68"/>
<polygon fill="black" stroke="black" points="1116.49,-94.18 1106.19,-96.64 1115.78,-101.14 1116.49,-94.18"/>
</g>
<!-- [root] data.aws_availability_zones.available (expand) -->
<g id="node15" class="node">
<title>[root] data.aws_availability_zones.available (expand)</title>
<polygon fill="none" stroke="black" points="1566.56,-108 1338.56,-108 1338.56,-72 1566.56,-72 1566.56,-108"/>
<text text-anchor="middle" x="1452.56" y="-86.3" font-family="Times,serif" font-size="14.00">data.aws_availability_zones.available</text>
</g>
<!-- [root] aws_subnet.subnet&#45;databases (expand)&#45;&gt;[root] data.aws_availability_zones.available (expand) -->
<g id="edge21" class="edge">
<title>[root] aws_subnet.subnet&#45;databases (expand)&#45;&gt;[root] data.aws_availability_zones.available (expand)</title>
<path fill="none" stroke="black" d="M1565.11,-143.88C1544.92,-134.39 1519.64,-122.51 1498.15,-112.42"/>
<polygon fill="black" stroke="black" points="1499.43,-109.15 1488.89,-108.07 1496.45,-115.49 1499.43,-109.15"/>
</g>
<!-- [root] aws_subnet.subnet&#45;servers (expand)&#45;&gt;[root] aws_vpc.test&#45;env (expand) -->
<g id="edge22" class="edge">
<title>[root] aws_subnet.subnet&#45;servers (expand)&#45;&gt;[root] aws_vpc.test&#45;env (expand)</title>
<path fill="none" stroke="black" d="M983.87,-215.74C985.84,-197.14 990.72,-167.12 1002.56,-144 1007.8,-133.78 1015.47,-123.96 1023.1,-115.61"/>
<polygon fill="black" stroke="black" points="1025.63,-118.02 1030.03,-108.38 1020.58,-113.18 1025.63,-118.02"/>
</g>
<!-- [root] aws_vpc.test&#45;env (expand)&#45;&gt;[root] provider[&quot;registry.terraform.io/hashicorp/aws&quot;] -->
<g id="edge23" class="edge">
<title>[root] aws_vpc.test&#45;env (expand)&#45;&gt;[root] provider[&quot;registry.terraform.io/hashicorp/aws&quot;]</title>
<path fill="none" stroke="black" d="M1000.4,-71.97C969.42,-61.23 929.51,-47.4 898.24,-36.56"/>
<polygon fill="black" stroke="black" points="899.01,-33.13 888.42,-33.16 896.72,-39.74 899.01,-33.13"/>
</g>
<!-- [root] data.aws_ami.ubuntu (expand)&#45;&gt;[root] provider[&quot;registry.terraform.io/hashicorp/aws&quot;] -->
<g id="edge24" class="edge">
<title>[root] data.aws_ami.ubuntu (expand)&#45;&gt;[root] provider[&quot;registry.terraform.io/hashicorp/aws&quot;]</title>
<path fill="none" stroke="black" d="M369.79,-143.94C475.46,-116.31 682.65,-62.13 785.95,-35.11"/>
<polygon fill="black" stroke="black" points="787.13,-38.42 795.92,-32.5 785.36,-31.65 787.13,-38.42"/>
</g>
<!-- [root] data.aws_availability_zones.available (expand)&#45;&gt;[root] provider[&quot;registry.terraform.io/hashicorp/aws&quot;] -->
<g id="edge25" class="edge">
<title>[root] data.aws_availability_zones.available (expand)&#45;&gt;[root] provider[&quot;registry.terraform.io/hashicorp/aws&quot;]</title>
<path fill="none" stroke="black" d="M1338.41,-75.79C1226.45,-62.84 1057.32,-43.27 949.69,-30.82"/>
<polygon fill="black" stroke="black" points="949.81,-27.31 939.47,-29.63 949,-34.26 949.81,-27.31"/>
</g>
<!-- [root] output.database_url -->
<g id="node16" class="node">
<title>[root] output.database_url</title>
<polygon fill="none" stroke="black" points="1315.06,-396 1194.06,-396 1194.06,-360 1321.06,-360 1321.06,-390 1315.06,-396"/>
<polyline fill="none" stroke="black" points="1315.06,-396 1315.06,-390 "/>
<polyline fill="none" stroke="black" points="1321.06,-390 1315.06,-390 "/>
<text text-anchor="middle" x="1257.56" y="-374.3" font-family="Times,serif" font-size="14.00">output.database_url</text>
</g>
<!-- [root] output.database_url&#45;&gt;[root] aws_db_instance.mysql_db (expand) -->
<g id="edge31" class="edge">
<title>[root] output.database_url&#45;&gt;[root] aws_db_instance.mysql_db (expand)</title>
<path fill="none" stroke="black" d="M1282.51,-359.88C1295.6,-350.89 1311.82,-339.76 1326,-330.03"/>
<polygon fill="black" stroke="black" points="1328.25,-332.73 1334.51,-324.19 1324.29,-326.96 1328.25,-332.73"/>
</g>
<!-- [root] output.server_public_ip -->
<g id="node17" class="node">
<title>[root] output.server_public_ip</title>
<polygon fill="none" stroke="black" points="355.56,-396 211.56,-396 211.56,-360 361.56,-360 361.56,-390 355.56,-396"/>
<polyline fill="none" stroke="black" points="355.56,-396 355.56,-390 "/>
<polyline fill="none" stroke="black" points="361.56,-390 355.56,-390 "/>
<text text-anchor="middle" x="286.56" y="-374.3" font-family="Times,serif" font-size="14.00">output.server_public_ip</text>
</g>
<!-- [root] output.server_public_ip&#45;&gt;[root] aws_instance.test&#45;ec2&#45;instance (expand) -->
<g id="edge32" class="edge">
<title>[root] output.server_public_ip&#45;&gt;[root] aws_instance.test&#45;ec2&#45;instance (expand)</title>
<path fill="none" stroke="black" d="M277.17,-359.7C272.8,-351.64 267.5,-341.89 262.67,-332.98"/>
<polygon fill="black" stroke="black" points="265.69,-331.22 257.85,-324.1 259.54,-334.56 265.69,-331.22"/>
</g>
<!-- [root] provider[&quot;registry.terraform.io/hashicorp/tls&quot;] -->
<g id="node19" class="node">
<title>[root] provider[&quot;registry.terraform.io/hashicorp/tls&quot;]</title>
<polygon fill="none" stroke="black" points="592.56,-252 341.7,-234 592.56,-216 843.42,-234 592.56,-252"/>
<text text-anchor="middle" x="592.56" y="-230.3" font-family="Times,serif" font-size="14.00">provider[&quot;registry.terraform.io/hashicorp/tls&quot;]</text>
</g>
<!-- [root] tls_private_key.example (expand)&#45;&gt;[root] provider[&quot;registry.terraform.io/hashicorp/tls&quot;] -->
<g id="edge41" class="edge">
<title>[root] tls_private_key.example (expand)&#45;&gt;[root] provider[&quot;registry.terraform.io/hashicorp/tls&quot;]</title>
<path fill="none" stroke="black" d="M592.56,-287.7C592.56,-279.98 592.56,-270.71 592.56,-262.11"/>
<polygon fill="black" stroke="black" points="596.06,-262.1 592.56,-252.1 589.06,-262.1 596.06,-262.1"/>
</g>
<!-- [root] meta.count&#45;boundary (EachMode fixup) -->
<g id="node23" class="node">
<title>[root] meta.count&#45;boundary (EachMode fixup)</title>
<ellipse fill="none" stroke="black" cx="678.56" cy="-450" rx="180.07" ry="18"/>
<text text-anchor="middle" x="678.56" y="-446.3" font-family="Times,serif" font-size="14.00">[root] meta.count&#45;boundary (EachMode fixup)</text>
</g>
<!-- [root] meta.count&#45;boundary (EachMode fixup)&#45;&gt;[root] aws_eip.ip&#45;test&#45;env (expand) -->
<g id="edge26" class="edge">
<title>[root] meta.count&#45;boundary (EachMode fixup)&#45;&gt;[root] aws_eip.ip&#45;test&#45;env (expand)</title>
<path fill="none" stroke="black" d="M657.74,-432.05C646.84,-423.18 633.31,-412.17 621.41,-402.48"/>
<polygon fill="black" stroke="black" points="623.45,-399.63 613.49,-396.03 619.03,-405.06 623.45,-399.63"/>
</g>
<!-- [root] meta.count&#45;boundary (EachMode fixup)&#45;&gt;[root] aws_key_pair.generated_key (expand) -->
<g id="edge27" class="edge">
<title>[root] meta.count&#45;boundary (EachMode fixup)&#45;&gt;[root] aws_key_pair.generated_key (expand)</title>
<path fill="none" stroke="black" d="M699.14,-432.05C709.92,-423.18 723.28,-412.17 735.05,-402.48"/>
<polygon fill="black" stroke="black" points="737.39,-405.09 742.88,-396.03 732.94,-399.69 737.39,-405.09"/>
</g>
<!-- [root] meta.count&#45;boundary (EachMode fixup)&#45;&gt;[root] aws_route_table_association.subnet&#45;association (expand) -->
<g id="edge28" class="edge">
<title>[root] meta.count&#45;boundary (EachMode fixup)&#45;&gt;[root] aws_route_table_association.subnet&#45;association (expand)</title>
<path fill="none" stroke="black" d="M752.93,-433.55C803.3,-423.09 870.18,-409.2 923.84,-398.05"/>
<polygon fill="black" stroke="black" points="924.62,-401.46 933.7,-396 923.2,-394.61 924.62,-401.46"/>
</g>
<!-- [root] meta.count&#45;boundary (EachMode fixup)&#45;&gt;[root] output.database_url -->
<g id="edge29" class="edge">
<title>[root] meta.count&#45;boundary (EachMode fixup)&#45;&gt;[root] output.database_url</title>
<path fill="none" stroke="black" d="M808.88,-437.58C907.38,-428.29 1045.79,-413.81 1166.56,-396 1172.26,-395.16 1178.16,-394.22 1184.07,-393.23"/>
<polygon fill="black" stroke="black" points="1184.76,-396.66 1194.02,-391.51 1183.57,-389.76 1184.76,-396.66"/>
</g>
<!-- [root] meta.count&#45;boundary (EachMode fixup)&#45;&gt;[root] output.server_public_ip -->
<g id="edge30" class="edge">
<title>[root] meta.count&#45;boundary (EachMode fixup)&#45;&gt;[root] output.server_public_ip</title>
<path fill="none" stroke="black" d="M594.47,-433.98C528.67,-422.23 437.56,-405.96 371.54,-394.17"/>
<polygon fill="black" stroke="black" points="372.04,-390.71 361.58,-392.4 370.81,-397.6 372.04,-390.71"/>
</g>
<!-- [root] provider[&quot;registry.terraform.io/hashicorp/aws&quot;] (close) -->
<g id="node24" class="node">
<title>[root] provider[&quot;registry.terraform.io/hashicorp/aws&quot;] (close)</title>
<ellipse fill="none" stroke="black" cx="1109.56" cy="-450" rx="232.86" ry="18"/>
<text text-anchor="middle" x="1109.56" y="-446.3" font-family="Times,serif" font-size="14.00">[root] provider[&quot;registry.terraform.io/hashicorp/aws&quot;] (close)</text>
</g>
<!-- [root] provider[&quot;registry.terraform.io/hashicorp/aws&quot;] (close)&#45;&gt;[root] aws_db_instance.mysql_db (expand) -->
<g id="edge33" class="edge">
<title>[root] provider[&quot;registry.terraform.io/hashicorp/aws&quot;] (close)&#45;&gt;[root] aws_db_instance.mysql_db (expand)</title>
<path fill="none" stroke="black" d="M1214.19,-433.89C1262.48,-424.97 1312.99,-412.23 1330.56,-396 1347.77,-380.11 1354.79,-353.91 1357.64,-334.04"/>
<polygon fill="black" stroke="black" points="1361.13,-334.38 1358.81,-324.04 1354.18,-333.56 1361.13,-334.38"/>
</g>
<!-- [root] provider[&quot;registry.terraform.io/hashicorp/aws&quot;] (close)&#45;&gt;[root] aws_eip.ip&#45;test&#45;env (expand) -->
<g id="edge34" class="edge">
<title>[root] provider[&quot;registry.terraform.io/hashicorp/aws&quot;] (close)&#45;&gt;[root] aws_eip.ip&#45;test&#45;env (expand)</title>
<path fill="none" stroke="black" d="M964.4,-435.91C879.78,-427.27 770.88,-414.42 665.55,-396.07"/>
<polygon fill="black" stroke="black" points="666.15,-392.62 655.69,-394.33 664.93,-399.51 666.15,-392.62"/>
</g>
<!-- [root] provider[&quot;registry.terraform.io/hashicorp/aws&quot;] (close)&#45;&gt;[root] aws_key_pair.generated_key (expand) -->
<g id="edge35" class="edge">
<title>[root] provider[&quot;registry.terraform.io/hashicorp/aws&quot;] (close)&#45;&gt;[root] aws_key_pair.generated_key (expand)</title>
<path fill="none" stroke="black" d="M1030.61,-433.03C979.17,-422.62 911.78,-408.99 857.56,-398.02"/>
<polygon fill="black" stroke="black" points="858.1,-394.56 847.6,-396 856.71,-401.42 858.1,-394.56"/>
</g>
<!-- [root] provider[&quot;registry.terraform.io/hashicorp/aws&quot;] (close)&#45;&gt;[root] aws_route_table_association.subnet&#45;association (expand) -->
<g id="edge36" class="edge">
<title>[root] provider[&quot;registry.terraform.io/hashicorp/aws&quot;] (close)&#45;&gt;[root] aws_route_table_association.subnet&#45;association (expand)</title>
<path fill="none" stroke="black" d="M1086.81,-432.05C1074.77,-423.09 1059.82,-411.96 1046.72,-402.2"/>
<polygon fill="black" stroke="black" points="1048.54,-399.2 1038.43,-396.03 1044.36,-404.81 1048.54,-399.2"/>
</g>
<!-- [root] provider[&quot;registry.terraform.io/hashicorp/tls&quot;] (close) -->
<g id="node25" class="node">
<title>[root] provider[&quot;registry.terraform.io/hashicorp/tls&quot;] (close)</title>
<ellipse fill="none" stroke="black" cx="252.56" cy="-450" rx="227.46" ry="18"/>
<text text-anchor="middle" x="252.56" y="-446.3" font-family="Times,serif" font-size="14.00">[root] provider[&quot;registry.terraform.io/hashicorp/tls&quot;] (close)</text>
</g>
<!-- [root] provider[&quot;registry.terraform.io/hashicorp/tls&quot;] (close)&#45;&gt;[root] tls_private_key.example (expand) -->
<g id="edge37" class="edge">
<title>[root] provider[&quot;registry.terraform.io/hashicorp/tls&quot;] (close)&#45;&gt;[root] tls_private_key.example (expand)</title>
<path fill="none" stroke="black" d="M292.9,-432.15C355.1,-406.18 474.32,-356.38 542.13,-328.06"/>
<polygon fill="black" stroke="black" points="543.87,-331.13 551.75,-324.05 541.17,-324.67 543.87,-331.13"/>
</g>
<!-- [root] root -->
<g id="node26" class="node">
<title>[root] root</title>
<ellipse fill="none" stroke="black" cx="678.56" cy="-522" rx="48.19" ry="18"/>
<text text-anchor="middle" x="678.56" y="-518.3" font-family="Times,serif" font-size="14.00">[root] root</text>
</g>
<!-- [root] root&#45;&gt;[root] meta.count&#45;boundary (EachMode fixup) -->
<g id="edge38" class="edge">
<title>[root] root&#45;&gt;[root] meta.count&#45;boundary (EachMode fixup)</title>
<path fill="none" stroke="black" d="M678.56,-503.7C678.56,-495.98 678.56,-486.71 678.56,-478.11"/>
<polygon fill="black" stroke="black" points="682.06,-478.1 678.56,-468.1 675.06,-478.1 682.06,-478.1"/>
</g>
<!-- [root] root&#45;&gt;[root] provider[&quot;registry.terraform.io/hashicorp/aws&quot;] (close) -->
<g id="edge39" class="edge">
<title>[root] root&#45;&gt;[root] provider[&quot;registry.terraform.io/hashicorp/aws&quot;] (close)</title>
<path fill="none" stroke="black" d="M721.86,-513.97C787.39,-503.32 913.72,-482.81 1004.38,-468.08"/>
<polygon fill="black" stroke="black" points="1005.11,-471.51 1014.42,-466.45 1003.99,-464.6 1005.11,-471.51"/>
</g>
<!-- [root] root&#45;&gt;[root] provider[&quot;registry.terraform.io/hashicorp/tls&quot;] (close) -->
<g id="edge40" class="edge">
<title>[root] root&#45;&gt;[root] provider[&quot;registry.terraform.io/hashicorp/tls&quot;] (close)</title>
<path fill="none" stroke="black" d="M635.37,-513.9C570.43,-503.23 445.74,-482.74 356.3,-468.05"/>
<polygon fill="black" stroke="black" points="356.83,-464.59 346.4,-466.42 355.7,-471.49 356.83,-464.59"/>
</g>
</g>
</svg>
